<svg xmlns="http://www.w3.org/2000/svg" height="512" width="512" version="1">
  <defs>
    <clipPath id="a">
      <path fill-opacity=".67" d="M0 0h512v512H0z"/>
    </clipPath>
  </defs>
  <rect stroke="#000" id="svg_18" height="514.345474" width="511.574088" y="-0.347179" x="-0.500013" stroke-width="1.5" fill="#fff"/>
  <g stroke="null" id="svg_2" clip-path="url(#a)" fill-rule="evenodd">
   <path stroke="null" id="svg_3" d="m509.609983,434.024867l-509.169977,0l0,-357.033332l509.169977,0l0,357.033332z" fill="#fff"/>
   <path stroke="null" id="svg_4" fill="#fff" d="m259.450256,255.829671a78.454588,78.454588 0 1 1 -156.909176,0a78.454588,78.454588 0 1 1 156.909176,0z"/>
   <path stroke="null" id="svg_5" fill="#c70000" d="m357.871515,260.382543a101.295656,102.370243 0 1 1 -202.590615,0a101.295656,102.370243 0 1 1 202.590615,0z"/>
   <path stroke="null" id="svg_6" d="m49.352876,165.468858l58.338689,-67.480694l13.821792,11.948762l-58.338689,67.481392l-13.821792,-11.949459zm19.106165,16.517673l58.338689,-67.480694l13.821095,11.948762l-58.338689,67.480694l-13.821095,-11.948762z"/>
   <path stroke="null" id="svg_7" d="m49.352876,165.468858l58.338689,-67.480694l13.821792,11.948762l-58.338689,67.481392l-13.821792,-11.949459z"/>
   <path stroke="null" id="svg_8" d="m49.352876,165.468858l58.338689,-67.480694l13.821792,11.948762l-58.338689,67.481392l-13.821792,-11.949459zm38.620965,33.388195l58.338689,-67.480694l13.821095,11.949459l-58.338689,67.480694l-13.821095,-11.949459z"/>
   <path stroke="null" id="svg_9" d="m49.352876,165.468858l58.338689,-67.480694l13.821792,11.948762l-58.338689,67.481392l-13.821792,-11.949459z"/>
   <path stroke="null" id="svg_10" d="m49.352876,165.468858l58.338689,-67.480694l13.821792,11.948762l-58.338689,67.481392l-13.821792,-11.949459zm354.822794,-67.503009l57.879845,67.874686l-13.902683,11.854622l-57.879845,-67.873989l13.902683,-11.85532zm-38.845505,33.125302l57.879845,67.874686l-13.901985,11.854622l-57.879845,-67.873989l13.901985,-11.85532z"/>
   <path stroke="null" id="svg_11" fill="#fff" d="m374.983313,170.17584l54.81159,-47.288786l10.209619,11.821848l-58.572992,52.661719l-6.448217,-17.195478l0,0.000697z"/>
   <path stroke="null" id="svg_12" d="m442.399853,336.714456l-56.076548,66.824506l-13.748573,-11.436224l56.077245,-66.823809l13.747875,11.435527zm-57.442619,-222.359941l57.879845,67.873989l-13.901985,11.85532l-57.879845,-67.873989l13.901985,-11.85532zm76.442789,238.163547l-56.077245,66.824506l-13.747875,-11.435527l56.077245,-66.824506l13.747875,11.435527zm-38.412463,-31.950997l-56.077245,66.825204l-13.747875,-11.436224l56.076548,-66.824506l13.748573,11.435527z"/>
   <path stroke="null" id="svg_13" fill="#3d5897" d="m156.753662,242.342597c3.202143,25.783106 7.877745,54.51383 47.557258,57.498405c14.87267,0.891189 43.804224,-3.538256 53.737003,-44.064329c13.031717,-38.931277 52.282371,-50.124133 78.993625,-29.018024c15.144629,9.878387 19.334889,25.568328 20.419936,37.346942c-1.212658,37.825311 -22.92405,70.56987 -50.781716,85.171975c-32.0284,19.037129 -76.399554,19.434607 -115.268769,-9.406992c-17.516948,-16.436085 -41.992559,-46.735105 -34.657337,-97.528675l0,0.000697z"/>
   <path stroke="null" id="svg_14" fill="#fff" d="m387.786305,335.722155l54.903637,47.182094l-10.174753,11.85253l-60.776557,-50.10391l16.047672,-8.930715z"/>
   <path stroke="null" id="svg_15" d="m82.497005,326.382804l57.879845,67.874686l-13.902683,11.854622l-57.879845,-67.873989l13.902683,-11.85532z"/>
   <path stroke="null" id="svg_16" fill="#fff" d="m72.524479,382.206221l54.81159,-47.288786l10.209619,11.821848l-58.572992,52.661719l-6.448217,-17.195478l0,0.000697z"/>
   <path stroke="null" id="svg_17" d="m101.714743,309.994835l57.880542,67.873989l-13.902683,11.854622l-57.879845,-67.873989l13.901985,-11.854622zm-38.844808,33.125302l57.879845,67.873989l-13.901985,11.854622l-57.880542,-67.873292l13.902683,-11.85532z"/>
  </g>
</svg>

